<?xml version="1.0" encoding="utf-8"?>
<!-- Generator: Adobe Illustrator 14.0.0, SVG Export Plug-In  -->
<!DOCTYPE svg PUBLIC "-//W3C//DTD SVG 1.1//EN" "http://www.w3.org/Graphics/SVG/1.1/DTD/svg11.dtd" [
	<!ENTITY ns_flows "http://ns.adobe.com/Flows/1.0/">
]>
<svg version="1.1"
	 xmlns="http://www.w3.org/2000/svg" xmlns:xlink="http://www.w3.org/1999/xlink" xmlns:a="http://ns.adobe.com/AdobeSVGViewerExtensions/3.0/"
	 x="0px" y="0px" width="330px" height="160px" viewBox="-0.3222656 0.484375 330 160"
	 enable-background="new -0.3222656 0.484375 330 160" xml:space="preserve">
<defs>
</defs>
<path opacity="0.2" fill="#FFFFFF" d="M314.1933594,86.5761719c0-21.1835938-17.5859375-38.7871094-40.7421875-42.3916016
	c-6.5664063-11.4814453-19.2353516-19.2724609-33.7890625-19.2724609c-3.375,0-6.6484375,0.4248047-9.7607422,1.2080078
	c-7.3417969-13.7783203-21.1552734-23.0722656-37.0078125-23.0722656c-12.2480469,0-23.2832031,5.5537109-31.0517578,14.4296875
	C156.2109375,6.984375,146.2436523,0,134.871582,0c-13.4814453,0-24.9946289,9.8134766-29.6313477,23.6621094
	c-5.621582-2.4462891-11.8676758-3.8144531-18.4506836-3.8144531c-19.5917969,0-36.2133789,12.0585938-42.1367188,28.7929688
	c-0.7739258-0.0361328-1.5498047-0.0566406-2.3330078-0.0566406C18.9477539,48.5839844,0,64.4482422,0,84.0175781
	c0,8.8847656,11.5585938,20.1787109,20.4458008,27.2451172c4.9003906,3.8994141,14.5170898,15.2138672,18.8769531,19.1025391
	c19.706543,17.6132813,65.8154297,29.9697266,119.5546875,29.9697266c57.112793,0,105.6069336-13.9541016,122.9555664-33.3457031
	C300.7226563,120.9238281,314.1933594,105.1220703,314.1933594,86.5761719z"/>
<path fill="#FFFFFF" d="M328.8662109,88.6220703c0-12.7998047-10.5322266-23.4355469-24.4013672-25.6142578
	c-3.9335938-6.9375-11.5214844-11.6445313-20.2363281-11.6445313c-2.0224609,0-3.9824219,0.2568359-5.8476563,0.7294922
	c-4.3945313-8.3251953-12.6689453-13.9404297-22.1640625-13.9404297c-7.3339844,0-13.9433594,3.3554688-18.5957031,8.71875
	c-3.3730469-6.3408203-9.3427734-10.5605469-16.1552734-10.5605469c-8.0722656,0-14.9677734,5.9296875-17.7441406,14.296875
	c-3.3691406-1.4775391-7.1074219-2.3046875-11.0507813-2.3046875c-11.7353516,0-21.6884766,7.2861328-25.2373047,17.3974609
	c-0.4628906-0.0214844-0.9267578-0.0341797-1.3964844-0.0341797c-13.9990234,0-25.347168,9.5859375-25.347168,21.4101563
	c0,5.3681641,6.921875,12.1923828,12.2460938,16.4628906c2.9355469,2.3554688,8.6943359,9.1923828,11.3056641,11.5419922
	c11.8022461,10.6425781,39.4174805,18.1083984,71.6040039,18.1083984c34.2041016,0,63.2490234-8.4316406,73.6396484-20.1484375
	C320.7998047,109.3759766,328.8662109,99.828125,328.8662109,88.6220703z"/>
</svg>
