<?xml version="1.0" encoding="utf-8"?>
<!-- Generator: Adobe Illustrator 14.0.0, SVG Export Plug-In  -->
<!DOCTYPE svg PUBLIC "-//W3C//DTD SVG 1.1//EN" "http://www.w3.org/Graphics/SVG/1.1/DTD/svg11.dtd" [
	<!ENTITY ns_flows "http://ns.adobe.com/Flows/1.0/">
]>
<svg version="1.1"
	 xmlns="http://www.w3.org/2000/svg" xmlns:xlink="http://www.w3.org/1999/xlink" xmlns:a="http://ns.adobe.com/AdobeSVGViewerExtensions/3.0/"
	 x="0px" y="0px" width="105px" height="55px" viewBox="0.0498047 0.0498047 105 55"
	 enable-background="new 0.0498047 0.0498047 105 55" xml:space="preserve">
<defs>
</defs>
<path fill="#FFFFFF" d="M105.1230469,29.9384766c0-7.3251953-5.8837891-13.4125977-13.6308594-14.6586914
	c-2.1972656-3.9711914-6.4365234-6.6645508-11.3056641-6.6645508c-1.1289063,0-2.2246094,0.1464844-3.265625,0.4174805
	c-2.4570313-4.7651367-7.078125-7.9785156-12.3828125-7.9785156c-4.0986328,0-7.7890625,1.9194336-10.3886719,4.9902344
	C52.265625,2.4150391,48.9301758,0,45.1254883,0c-4.5107422,0-8.362793,3.3935547-9.9135742,8.1826172
	c-1.8818359-0.8457031-3.9716797-1.3193359-6.1733398-1.3193359c-6.5551758,0-12.1166992,4.1699219-14.0986328,9.956543
	c-0.2592773-0.0117188-0.5185547-0.019043-0.7802734-0.019043C6.3393555,16.8007813,0,22.2866211,0,29.0537109
	c0,3.0722656,3.8671875,6.9775391,6.8413086,9.4228516c1.6391602,1.3476563,4.8564453,5.2607422,6.3149414,6.6054688
	c6.5942383,6.0908203,22.0205078,10.3632813,40.0009766,10.3632813c19.1083984,0,35.3339844-4.8251953,41.1396484-11.53125
	C100.6181641,41.8173828,105.1230469,36.3515625,105.1230469,29.9384766z"/>
</svg>
