<?xml version="1.0" encoding="utf-8"?>
<!-- Generator: Adobe Illustrator 14.0.0, SVG Export Plug-In  -->
<!DOCTYPE svg PUBLIC "-//W3C//DTD SVG 1.1//EN" "http://www.w3.org/Graphics/SVG/1.1/DTD/svg11.dtd" [
	<!ENTITY ns_flows "http://ns.adobe.com/Flows/1.0/">
]>
<svg version="1.1"
	 xmlns="http://www.w3.org/2000/svg" xmlns:xlink="http://www.w3.org/1999/xlink" xmlns:a="http://ns.adobe.com/AdobeSVGViewerExtensions/3.0/"
	 x="0px" y="0px" width="490px" height="490px" viewBox="0.8 1.4 490 490" enable-background="new 0.8 1.4 490 490"
	 xml:space="preserve">
<defs>
</defs>
<rect x="1.3" y="1.3" fill-rule="evenodd" clip-rule="evenodd" fill="none" stroke="#F2F2F2" stroke-width="2.6968" width="490.1" height="490.1"/>
<line fill="none" stroke="#F2F2F2" stroke-width="2.6968" x1="1.3" y1="1.3" x2="111.9" y2="83.4"/>
<line fill="none" stroke="#F2F2F2" stroke-width="2.6968" x1="111.9" y1="83.4" x2="1.3" y2="208.1"/>
<line fill="none" stroke="#F2F2F2" stroke-width="2.6968" x1="1.3" y1="208.1" x2="73.5" y2="227.2"/>
<line fill="none" stroke="#F2F2F2" stroke-width="2.6968" x1="73.5" y1="227.2" x2="111.9" y2="83.4"/>
<line fill="none" stroke="#F2F2F2" stroke-width="2.6968" x1="111.9" y1="83.4" x2="85.5" y2="1.3"/>
<line fill="none" stroke="#F2F2F2" stroke-width="2.6968" x1="85.5" y1="1.3" x2="305.3" y2="138.5"/>
<line fill="none" stroke="#F2F2F2" stroke-width="2.6968" x1="305.3" y1="138.5" x2="111.9" y2="83.4"/>
<line fill="none" stroke="#F2F2F2" stroke-width="2.6968" x1="111.9" y1="83.4" x2="143.1" y2="129.7"/>
<line fill="none" stroke="#F2F2F2" stroke-width="2.6968" x1="143.1" y1="129.7" x2="195.4" y2="107.2"/>
<line fill="none" stroke="#F2F2F2" stroke-width="2.6968" x1="195.4" y1="107.2" x2="195.4" y2="232.8"/>
<line fill="none" stroke="#F2F2F2" stroke-width="2.6968" x1="195.4" y1="232.8" x2="111.9" y2="366"/>
<line fill="none" stroke="#F2F2F2" stroke-width="2.6968" x1="111.9" y1="366" x2="111.9" y2="83.4"/>
<line fill="none" stroke="#F2F2F2" stroke-width="2.6968" x1="143.1" y1="129.7" x2="195.4" y2="232.8"/>
<line fill="none" stroke="#F2F2F2" stroke-width="2.6406" x1="195.4" y1="232.8" x2="111.9" y2="232.8"/>
<line fill="none" stroke="#F2F2F2" stroke-width="2.6968" x1="111.9" y1="232.8" x2="1.3" y2="491.5"/>
<line fill="none" stroke="#F2F2F2" stroke-width="2.6968" x1="1.3" y1="491.5" x2="111.9" y2="366"/>
<line fill="none" stroke="#F2F2F2" stroke-width="2.6968" x1="111.9" y1="366" x2="218.2" y2="419"/>
<line fill="none" stroke="#F2F2F2" stroke-width="2.6968" x1="218.2" y1="419" x2="195.4" y2="232.8"/>
<line fill="none" stroke="#F2F2F2" stroke-width="2.6968" x1="195.4" y1="232.8" x2="305.3" y2="138.5"/>
<line fill="none" stroke="#F2F2F2" stroke-width="2.6968" x1="305.3" y1="138.5" x2="491.5" y2="1.3"/>
<line fill="none" stroke="#F2F2F2" stroke-width="2.6968" x1="491.5" y1="1.3" x2="398.4" y2="299.4"/>
<line fill="none" stroke="#F2F2F2" stroke-width="2.6968" x1="398.4" y1="299.4" x2="305.3" y2="138.5"/>
<line fill="none" stroke="#F2F2F2" stroke-width="2.6968" x1="305.3" y1="138.5" x2="294.1" y2="246.4"/>
<line fill="none" stroke="#F2F2F2" stroke-width="2.6968" x1="294.1" y1="246.4" x2="336.5" y2="192.5"/>
<line fill="none" stroke="#F2F2F2" stroke-width="2.6968" x1="294.1" y1="246.4" x2="218.2" y2="419"/>
<line fill="none" stroke="#F2F2F2" stroke-width="2.6968" x1="218.2" y1="419" x2="398.4" y2="299.4"/>
<line fill="none" stroke="#F2F2F2" stroke-width="2.6968" x1="398.4" y1="299.4" x2="491.5" y2="491.5"/>
<line fill="none" stroke="#F2F2F2" stroke-width="2.6968" x1="491.5" y1="491.5" x2="322.5" y2="349.8"/>
<line fill="none" stroke="#F2F2F2" stroke-width="2.6968" x1="322.5" y1="349.8" x2="286.1" y2="491.5"/>
<line fill="none" stroke="#F2F2F2" stroke-width="2.6968" x1="199" y1="72.2" x2="308.3" y2="1.3"/>
<line fill="none" stroke="#F2F2F2" stroke-width="2.6968" x1="308.3" y1="1.3" x2="371.8" y2="89.5"/>
<line fill="none" stroke="#F2F2F2" stroke-width="2.6968" x1="371.8" y1="89.5" x2="199" y2="72.2"/>
<line fill="none" stroke="#F2F2F2" stroke-width="2.6968" x1="218.2" y1="419" x2="63.8" y2="420.6"/>
<line fill="none" stroke="#F2F2F2" stroke-width="2.6968" x1="63.8" y1="420.6" x2="182.2" y2="491.5"/>
<line fill="none" stroke="#F2F2F2" stroke-width="2.6968" x1="182.2" y1="491.5" x2="218.2" y2="419"/>
<line fill="none" stroke="#F2F2F2" stroke-width="2.6968" x1="218.2" y1="419" x2="286.1" y2="491.5"/>
<line fill="none" stroke="#F2F2F2" stroke-width="2.6968" x1="286.1" y1="491.5" x2="395.4" y2="410.9"/>
<line fill="none" stroke="#F2F2F2" stroke-width="2.6968" x1="398.4" y1="299.4" x2="491.5" y2="262.4"/>
<line fill="none" stroke="#F2F2F2" stroke-width="2.6968" x1="439.9" y1="166.4" x2="491.5" y2="262.4"/>
<line fill="none" stroke="#F2F2F2" stroke-width="2.6968" x1="439.9" y1="166.4" x2="305.3" y2="138.5"/>
<line fill="none" stroke="#F2F2F2" stroke-width="2.6968" x1="371.8" y1="89.5" x2="438.8" y2="170"/>
<line fill="none" stroke="#F2F2F2" stroke-width="2.6968" x1="199" y1="72.2" x2="200.2" y2="1.3"/>
<line fill="none" stroke="#F2F2F2" stroke-width="2.6968" x1="73.5" y1="227.2" x2="111.9" y2="232.8"/>
<line fill="none" stroke="#F2F2F2" stroke-width="2.6406" x1="73.5" y1="227.2" x2="1.3" y2="375.1"/>
<line fill="none" stroke="#F2F2F2" stroke-width="2.6406" x1="1.3" y1="375.1" x2="69.2" y2="332.7"/>
<line fill="none" stroke="#F2F2F2" stroke-width="2.6406" x1="69.2" y1="332.7" x2="1.3" y2="208.1"/>
<line fill="none" stroke="#F2F2F2" stroke-width="2.6406" x1="56.6" y1="42.4" x2="1.3" y2="208.1"/>
<line fill="none" stroke="#F2F2F2" stroke-width="2.6406" x1="195.4" y1="232.8" x2="268.7" y2="304.1"/>
<line fill="none" stroke="#F2F2F2" stroke-width="2.6406" x1="294.1" y1="246.4" x2="398.4" y2="299.4"/>
</svg>
