<?xml version="1.0" encoding="utf-8"?>
<!-- Generator: Adobe Illustrator 14.0.0, SVG Export Plug-In  -->
<!DOCTYPE svg PUBLIC "-//W3C//DTD SVG 1.1//EN" "http://www.w3.org/Graphics/SVG/1.1/DTD/svg11.dtd" [
	<!ENTITY ns_flows "http://ns.adobe.com/Flows/1.0/">
]>
<svg version="1.1"
	 xmlns="http://www.w3.org/2000/svg" xmlns:xlink="http://www.w3.org/1999/xlink" xmlns:a="http://ns.adobe.com/AdobeSVGViewerExtensions/3.0/"
	 x="0px" y="0px" viewBox="-2.5859375 -2.1723633 60 60"
	 enable-background="new -2.5859375 -2.1723633 60 60" xml:space="preserve">
<defs>
</defs>
<path fill-rule="evenodd" clip-rule="evenodd" fill="#FFFFFF" d="M25.0576172,0c0.2861328,0,0.5712891,0,0.8574219,0
	c0.171875,0.1484375,0.3388672,0.3032227,0.5351563,0.4282227c-0.3623047,3.0297852-1.6367188,5.6665039-2.4628906,8.3525391
	c-0.84375,2.7416992-1.59375,5.4155273-2.5703125,8.1386719c6.2109375,0,12.421875,0,18.6328125,0
	c1.0410156-2.7382813,1.8691406-5.6645508,2.7841797-8.5668945C43.7363281,5.4907227,44.5634766,2.5454102,45.8330078,0
	c0.3203125,0,0.6416016,0,0.9628906,0c0.9697266,1.2124023-0.0205078,2.8837891-0.4277344,4.1762695
	c-1.2753906,4.0449219-2.8535156,8.5195313-4.0693359,12.6362305c1.9150391,0.1938477,4.2548828,0.1069336,6.5322266,0.1069336
	c2.1679688,0,4.5703125-0.3691406,5.9960938,0.5356445c0,0.3212891,0,0.6420898,0,0.9633789
	c-1.4052734,0.9282227-4.0800781,0.5356445-6.3173828,0.5356445c-2.3085938,0-4.7519531,0-6.8535156,0
	c-1.9267578,5.4980469-3.6328125,11.2163086-5.4619141,16.8125c4.3847656,0.1943359,9.5878906,0.1069336,14.3496094,0.1069336
	c1.5205078,0,3.2412109-0.3598633,4.2832031,0.5356445c0,0.3212891,0,0.6420898,0,0.9633789
	c-1.1425781,0.875-2.9082031,0.5356445-4.4970703,0.5356445c-4.7138672,0-10.0449219,0-14.7773438,0
	c-1.0263672,2.7495117-1.8251953,5.7084961-2.7851563,8.5668945c-0.9628906,2.8706055-1.6474609,5.8251953-2.9980469,8.3525391
	c-0.2851563,0-0.5712891,0-0.8564453,0c-1.1660156-1.1860352,0.0234375-2.9257813,0.4277344-4.1762695
	c1.3486328-4.1704102,2.6650391-8.6894531,4.0693359-12.7431641c-6.2109375,0-12.4208984,0-18.6328125,0
	c-1.0498047,2.7358398-1.8603516,5.6645508-2.7841797,8.5668945c-0.9082031,2.8574219-1.7304688,5.8032227-2.9980469,8.3525391
	c-0.3212891,0-0.6425781,0-0.9638672,0c-0.9550781-1.2124023,0.0146484-2.8754883,0.4287109-4.1762695
	c1.2841797-4.0390625,2.8515625-8.5170898,4.0693359-12.6362305c-1.9150391-0.1938477-4.2558594-0.1069336-6.5322266-0.1069336
	c-2.1679688,0-4.5712891,0.3691406-5.9970703-0.5356445c0-0.3212891,0-0.6420898,0-0.9633789
	c0.6201172-0.7944336,1.8632813-0.5356445,2.8916016-0.5356445c3.2177734,0,7.0400391,0,10.2802734,0
	c1.921875-5.5024414,3.6396484-11.2089844,5.4609375-16.8125c-4.3837891-0.1943359-9.5849609-0.1069336-14.3496094-0.1069336
	c-1.5224609,0-3.2421875,0.3652344-4.2832031-0.5356445c0-0.3212891,0-0.6420898,0-0.9633789
	c0.4238281-0.4833984,0.7919922-0.472168,1.4990234-0.5356445c5.5107422-0.4936523,12.1445313,0.3691406,17.8828125,0
	c1.0800781-4.0415039,2.7880859-8.4702148,4.0703125-12.6362305C23.8398438,3.0219727,24.3505859,0.5126953,25.0576172,0z
	 M15.4199219,35.8735352c6.2109375,0,12.421875,0,18.6328125,0c1.7460938-5.6787109,3.6689453-11.1801758,5.3544922-16.9194336
	c-6.1748047,0-12.3505859,0-18.5253906,0C18.9443359,24.4765625,17.1650391,30.1582031,15.4199219,35.8735352z"/>
<path fill-rule="evenodd" clip-rule="evenodd" fill="#FFFFFF" d="M22.9160156,20.5605469
	c-0.2304688,2.5166016-1.3955078,4.7026367-2.2490234,7.2817383c-0.3583984,1.0834961-0.7783203,2.4521484-1.1777344,3.640625
	c-0.265625,0.7915039-0.8320313,3.3540039-1.6064453,3.2128906c-0.9814453-0.1791992,0.3779297-2.9575195,0.5361328-3.4267578
	c1.1796875-3.5161133,2.5244141-7.4541016,3.640625-10.6015625C22.1992188,20.3720703,22.6386719,20.453125,22.9160156,20.5605469z"
	/>
</svg>
